<svg xmlns="http://www.w3.org/2000/svg" width="1111" height="252" fill="none">
  <rect width="1111" height="252" fill="#E7816B" rx="15"/>
  <mask id="a" width="1111" height="252" x="0" y="0" maskUnits="userSpaceOnUse" style="mask-type:luminance">
    <rect width="1111" height="252" fill="#fff" rx="15"/>
  </mask>
  <g mask="url(#a)">
    <circle cx="146" cy="146" r="146" fill="url(#b)" opacity=".309" transform="matrix(0 -1 -1 0 234 418)"/>
    <circle cx="146" cy="146" r="146" fill="url(#c)" opacity=".309" transform="matrix(-1 0 0 1 818 126)"/>
    <circle cx="146" cy="146" r="146" fill="url(#d)" opacity=".309" transform="matrix(0 1 1 0 234 126)"/>
    <circle cx="146" cy="146" r="146" fill="url(#e)" opacity=".309" transform="matrix(0 -1 -1 0 818 126)"/>
    <circle cx="146" cy="146" r="146" fill="url(#f)" opacity=".309" transform="matrix(-1 0 0 1 526 -166)"/>
  </g>
  <defs>
    <linearGradient id="b" x1="0" x2="292" y1="292" y2="292" gradientUnits="userSpaceOnUse">
      <stop stop-color="#5D0202" stop-opacity=".01"/>
      <stop offset="1" stop-color="#5D0202" stop-opacity=".498"/>
    </linearGradient>
    <linearGradient id="c" x1="0" x2="292" y1="292" y2="292" gradientUnits="userSpaceOnUse">
      <stop stop-color="#5D0202" stop-opacity=".01"/>
      <stop offset="1" stop-color="#5D0202" stop-opacity=".498"/>
    </linearGradient>
    <linearGradient id="d" x1="0" x2="292" y1="292" y2="292" gradientUnits="userSpaceOnUse">
      <stop stop-color="#5D0202" stop-opacity=".01"/>
      <stop offset="1" stop-color="#5D0202" stop-opacity=".498"/>
    </linearGradient>
    <linearGradient id="e" x1="0" x2="292" y1="292" y2="292" gradientUnits="userSpaceOnUse">
      <stop stop-color="#5D0202" stop-opacity=".01"/>
      <stop offset="1" stop-color="#5D0202" stop-opacity=".498"/>
    </linearGradient>
    <linearGradient id="f" x1="0" x2="292" y1="292" y2="292" gradientUnits="userSpaceOnUse">
      <stop stop-color="#5D0202" stop-opacity=".01"/>
      <stop offset="1" stop-color="#5D0202" stop-opacity=".498"/>
    </linearGradient>
  </defs>
</svg>
